<?xml version="1.0" encoding="UTF-8" standalone="no"?>
<!-- Created with Inkscape (http://www.inkscape.org/) -->

<svg
   xmlns:dc="http://purl.org/dc/elements/1.1/"
   xmlns:cc="http://creativecommons.org/ns#"
   xmlns:rdf="http://www.w3.org/1999/02/22-rdf-syntax-ns#"
   xmlns:svg="http://www.w3.org/2000/svg"
   xmlns="http://www.w3.org/2000/svg"
   xmlns:sodipodi="http://sodipodi.sourceforge.net/DTD/sodipodi-0.dtd"
   xmlns:inkscape="http://www.inkscape.org/namespaces/inkscape"
   width="220.92709mm"
   height="22.789253mm"
   viewBox="0 0 220.92709 22.789253"
   version="1.1"
   id="svg8"
   inkscape:version="0.92.2 (5c3e80d, 2017-08-06)"
   sodipodi:docname="creneaux.svg">
  <defs
     id="defs2" />
  <sodipodi:namedview
     id="base"
     pagecolor="#ffffff"
     bordercolor="#666666"
     borderopacity="1.0"
     inkscape:pageopacity="0.0"
     inkscape:pageshadow="2"
     inkscape:zoom="1.979899"
     inkscape:cx="562.83959"
     inkscape:cy="-33.660608"
     inkscape:document-units="mm"
     inkscape:current-layer="layer1"
     showgrid="true"
     showguides="true"
     inkscape:guide-bbox="true"
     fit-margin-top="0"
     fit-margin-left="0"
     fit-margin-right="0"
     fit-margin-bottom="0"
     inkscape:window-width="1920"
     inkscape:window-height="1027"
     inkscape:window-x="0"
     inkscape:window-y="0"
     inkscape:window-maximized="1">
    <inkscape:grid
       type="xygrid"
       id="grid819"
       originx="-10.583333"
       originy="-253.97635" />
    <sodipodi:guide
       position="-2.7769248e-08,10.606974"
       orientation="1,0"
       id="guide964"
       inkscape:locked="false" />
    <sodipodi:guide
       position="14.552082,18.544473"
       orientation="0,1"
       id="guide966"
       inkscape:locked="false" />
    <sodipodi:guide
       position="18.520832,9.2840539"
       orientation="1,0"
       id="guide968"
       inkscape:locked="false" />
    <sodipodi:guide
       position="74.08333,9.2840539"
       orientation="1,0"
       id="guide970"
       inkscape:locked="false" />
    <sodipodi:guide
       position="166.68749,6.638214"
       orientation="1,0"
       id="guide972"
       inkscape:locked="false" />
  </sodipodi:namedview>
  <metadata
     id="metadata5">
    <rdf:RDF>
      <cc:Work
         rdf:about="">
        <dc:format>image/svg+xml</dc:format>
        <dc:type
           rdf:resource="http://purl.org/dc/dcmitype/StillImage" />
        <dc:title />
      </cc:Work>
    </rdf:RDF>
  </metadata>
  <g
     inkscape:label="Calque 1"
     inkscape:groupmode="layer"
     id="layer1"
     transform="translate(-10.583333,-20.234381)">
    <path
       style="opacity:1;fill:#2385bd;fill-opacity:1;stroke:none;stroke-width:0.86500001;stroke-linecap:round;stroke-linejoin:round;stroke-miterlimit:4;stroke-dasharray:none;stroke-dashoffset:0;stroke-opacity:1"
       d="m 11.055804,29.77083 h 6.992559 c 0.261749,0 0.472471,0.210722 0.472471,0.472471 v 12.307852 c 0,0.130874 -0.05268,0.248992 -0.13808,0.334391 -0.0854,0.0854 -0.203517,0.13808 -0.334391,0.13808 h -3.49628 -3.496279 c -0.130875,0 -0.248992,-0.05268 -0.334391,-0.13808 -0.0854,-0.0854 -0.13808,-0.203517 -0.13808,-0.334391 V 30.243301 c 0,-0.261749 0.210722,-0.472471 0.472471,-0.472471 z"
       id="rect821"
       inkscape:connector-curvature="0"
       sodipodi:nodetypes="sssssscsssss" />
    <path
       style="opacity:1;fill:#2385bd;fill-opacity:1;stroke:none;stroke-width:0.86500001;stroke-linecap:round;stroke-linejoin:round;stroke-miterlimit:4;stroke-dasharray:none;stroke-dashoffset:0;stroke-opacity:1"
       d="m 20.316219,29.770834 h 6.992559 c 0.261749,0 0.472471,0.210722 0.472471,0.472471 v 12.307852 c 0,0.130874 -0.05268,0.248991 -0.13808,0.33439 -0.0854,0.0854 -0.203517,0.13808 -0.334391,0.13808 h -3.49628 -3.496279 c -0.130875,0 -0.248992,-0.05268 -0.334391,-0.13808 -0.0854,-0.0854 -0.13808,-0.203516 -0.13808,-0.33439 V 30.243305 c 0,-0.261749 0.210722,-0.472471 0.472471,-0.472471 z"
       id="rect821-3"
       inkscape:connector-curvature="0"
       sodipodi:nodetypes="sssssscsssss" />
    <path
       style="opacity:1;fill:#b94d9b;fill-opacity:1;stroke:none;stroke-width:0.86500001;stroke-linecap:round;stroke-linejoin:round;stroke-miterlimit:4;stroke-dasharray:none;stroke-dashoffset:0;stroke-opacity:1"
       d="m 29.576637,29.770834 h 6.992559 c 0.261749,0 0.472471,0.210722 0.472471,0.472471 v 12.307852 c 0,0.130874 -0.05268,0.248991 -0.13808,0.33439 -0.0854,0.0854 -0.203517,0.13808 -0.334391,0.13808 h -3.49628 -3.496279 c -0.130875,0 -0.248992,-0.05268 -0.334391,-0.13808 -0.0854,-0.0854 -0.13808,-0.203516 -0.13808,-0.33439 V 30.243305 c 0,-0.261749 0.210722,-0.472471 0.472471,-0.472471 z"
       id="rect821-6"
       inkscape:connector-curvature="0"
       sodipodi:nodetypes="sssssscsssss" />
    <path
       style="opacity:1;fill:#b94d9b;fill-opacity:1;stroke:none;stroke-width:0.86500001;stroke-linecap:round;stroke-linejoin:round;stroke-miterlimit:4;stroke-dasharray:none;stroke-dashoffset:0;stroke-opacity:1"
       d="m 38.837053,29.770838 h 6.992559 c 0.261749,0 0.472471,0.210722 0.472471,0.47247 v 12.307853 c 0,0.130874 -0.05268,0.248991 -0.13808,0.33439 -0.0854,0.0854 -0.203517,0.13808 -0.334391,0.13808 h -3.49628 -3.496279 c -0.130875,0 -0.248992,-0.05268 -0.334391,-0.13808 -0.0854,-0.0854 -0.13808,-0.203516 -0.13808,-0.33439 V 30.243308 c 0,-0.261748 0.210722,-0.47247 0.472471,-0.47247 z"
       id="rect821-3-7"
       inkscape:connector-curvature="0"
       sodipodi:nodetypes="sssssscsssss" />
    <path
       style="opacity:1;fill:#b94d9b;fill-opacity:1;stroke:none;stroke-width:0.86500001;stroke-linecap:round;stroke-linejoin:round;stroke-miterlimit:4;stroke-dasharray:none;stroke-dashoffset:0;stroke-opacity:1"
       d="m 48.097474,29.770826 h 6.99256 c 0.261749,0 0.472471,0.210722 0.472471,0.472471 v 12.307852 c 0,0.130874 -0.05268,0.248992 -0.13808,0.334391 -0.0854,0.0854 -0.203517,0.13808 -0.334391,0.13808 h -3.49628 -3.49628 c -0.130874,0 -0.248992,-0.05268 -0.334391,-0.13808 -0.0854,-0.0854 -0.138079,-0.203517 -0.138079,-0.334391 V 30.243297 c 0,-0.261749 0.210722,-0.472471 0.47247,-0.472471 z"
       id="rect821-5"
       inkscape:connector-curvature="0"
       sodipodi:nodetypes="sssssscsssss" />
    <path
       style="opacity:1;fill:#b94d9b;fill-opacity:1;stroke:none;stroke-width:0.86500001;stroke-linecap:round;stroke-linejoin:round;stroke-miterlimit:4;stroke-dasharray:none;stroke-dashoffset:0;stroke-opacity:1"
       d="m 57.357888,29.77083 h 6.99256 c 0.261749,0 0.472471,0.210722 0.472471,0.472471 v 12.307852 c 0,0.130874 -0.05268,0.248992 -0.13808,0.334391 -0.0854,0.0854 -0.203517,0.13808 -0.334391,0.13808 h -3.49628 -3.49628 c -0.130874,0 -0.248992,-0.05268 -0.334391,-0.13808 -0.0854,-0.0854 -0.138079,-0.203517 -0.138079,-0.334391 V 30.243301 c 0,-0.261749 0.210722,-0.472471 0.47247,-0.472471 z"
       id="rect821-3-3"
       inkscape:connector-curvature="0"
       sodipodi:nodetypes="sssssscsssss" />
    <path
       style="opacity:1;fill:#b94d9b;fill-opacity:1;stroke:none;stroke-width:0.86500001;stroke-linecap:round;stroke-linejoin:round;stroke-miterlimit:4;stroke-dasharray:none;stroke-dashoffset:0;stroke-opacity:1"
       d="m 66.618299,29.77083 h 6.99256 c 0.261748,0 0.47247,0.210722 0.47247,0.472471 v 12.307852 c 0,0.130874 -0.05268,0.248992 -0.13808,0.334391 -0.0854,0.0854 -0.203516,0.13808 -0.33439,0.13808 h -3.49628 -3.49628 c -0.130875,0 -0.248992,-0.05268 -0.334391,-0.13808 -0.0854,-0.0854 -0.13808,-0.203517 -0.13808,-0.334391 V 30.243301 c 0,-0.261749 0.210722,-0.472471 0.472471,-0.472471 z"
       id="rect821-6-5"
       inkscape:connector-curvature="0"
       sodipodi:nodetypes="sssssscsssss" />
    <path
       style="opacity:1;fill:#b94d9b;fill-opacity:1;stroke:none;stroke-width:0.86500001;stroke-linecap:round;stroke-linejoin:round;stroke-miterlimit:4;stroke-dasharray:none;stroke-dashoffset:0;stroke-opacity:1"
       d="m 75.878721,29.770834 h 6.992559 c 0.261749,0 0.472471,0.210722 0.472471,0.472471 v 12.307852 c 0,0.130874 -0.05268,0.248991 -0.13808,0.33439 -0.0854,0.0854 -0.203517,0.13808 -0.334391,0.13808 H 79.375 75.878721 c -0.130875,0 -0.248992,-0.05268 -0.334391,-0.13808 -0.0854,-0.0854 -0.13808,-0.203516 -0.13808,-0.33439 V 30.243305 c 0,-0.261749 0.210722,-0.472471 0.472471,-0.472471 z"
       id="rect821-3-7-6"
       inkscape:connector-curvature="0"
       sodipodi:nodetypes="sssssscsssss" />
    <path
       style="opacity:1;fill:#b94d1d;fill-opacity:0.68627451;stroke:none;stroke-width:0.86500001;stroke-linecap:round;stroke-linejoin:round;stroke-miterlimit:4;stroke-dasharray:none;stroke-dashoffset:0;stroke-opacity:1"
       d="m 85.139127,29.770821 h 6.99256 c 0.261749,0 0.47247,0.210721 0.47247,0.47247 v 12.307852 c 0,0.130874 -0.05268,0.248992 -0.138079,0.334391 -0.0854,0.0854 -0.203517,0.13808 -0.334391,0.13808 h -3.49628 -3.49628 c -0.130875,0 -0.248992,-0.05268 -0.334391,-0.13808 -0.0854,-0.0854 -0.13808,-0.203517 -0.13808,-0.334391 V 30.243291 c 0,-0.261749 0.210722,-0.47247 0.472471,-0.47247 z"
       id="rect821-2"
       inkscape:connector-curvature="0"
       sodipodi:nodetypes="sssssscsssss" />
    <path
       style="opacity:0.68599997;fill:#b94d1d;fill-opacity:1;stroke:none;stroke-width:0.86500001;stroke-linecap:round;stroke-linejoin:round;stroke-miterlimit:4;stroke-dasharray:none;stroke-dashoffset:0;stroke-opacity:1"
       d="m 94.399541,29.770824 h 6.992559 c 0.26175,0 0.47247,0.210722 0.47247,0.472471 v 12.307852 c 0,0.130874 -0.0527,0.248992 -0.13808,0.334391 -0.0854,0.0854 -0.20352,0.13808 -0.33439,0.13808 h -3.49628 -3.496279 c -0.130875,0 -0.248992,-0.05268 -0.334391,-0.13808 -0.0854,-0.0854 -0.138079,-0.203517 -0.138079,-0.334391 V 30.243295 c 0,-0.261749 0.210721,-0.472471 0.47247,-0.472471 z"
       id="rect821-3-9"
       inkscape:connector-curvature="0"
       sodipodi:nodetypes="sssssscsssss" />
    <path
       style="opacity:0.68599997;fill:#b94d1d;fill-opacity:1;stroke:none;stroke-width:0.86500001;stroke-linecap:round;stroke-linejoin:round;stroke-miterlimit:4;stroke-dasharray:none;stroke-dashoffset:0;stroke-opacity:1"
       d="m 103.65996,29.770824 h 6.99256 c 0.26175,0 0.47247,0.210722 0.47247,0.472471 v 12.307852 c 0,0.130874 -0.0527,0.248992 -0.13808,0.334391 -0.0854,0.0854 -0.20351,0.13808 -0.33439,0.13808 h -3.49628 -3.49628 c -0.13088,0 -0.24899,-0.05268 -0.33439,-0.13808 -0.0854,-0.0854 -0.13808,-0.203517 -0.13808,-0.334391 V 30.243295 c 0,-0.261749 0.21072,-0.472471 0.47247,-0.472471 z"
       id="rect821-6-1"
       inkscape:connector-curvature="0"
       sodipodi:nodetypes="sssssscsssss" />
    <path
       style="opacity:0.68599997;fill:#b94d1d;fill-opacity:1;stroke:none;stroke-width:0.86500001;stroke-linecap:round;stroke-linejoin:round;stroke-miterlimit:4;stroke-dasharray:none;stroke-dashoffset:0;stroke-opacity:1"
       d="m 112.92038,29.770828 h 6.99256 c 0.26175,0 0.47247,0.210722 0.47247,0.472471 v 12.307852 c 0,0.130874 -0.0527,0.248992 -0.13808,0.334391 -0.0854,0.0854 -0.20352,0.13808 -0.33439,0.13808 h -3.49628 -3.49628 c -0.13088,0 -0.24899,-0.05268 -0.33439,-0.13808 -0.0854,-0.0854 -0.13808,-0.203517 -0.13808,-0.334391 V 30.243299 c 0,-0.261749 0.21072,-0.472471 0.47247,-0.472471 z"
       id="rect821-3-7-2"
       inkscape:connector-curvature="0"
       sodipodi:nodetypes="sssssscsssss" />
    <path
       style="opacity:0.68599997;fill:#b94d1d;fill-opacity:1;stroke:none;stroke-width:0.86500001;stroke-linecap:round;stroke-linejoin:round;stroke-miterlimit:4;stroke-dasharray:none;stroke-dashoffset:0;stroke-opacity:1"
       d="m 122.1808,29.770817 h 6.99256 c 0.26175,0 0.47247,0.210722 0.47247,0.47247 V 42.55114 c 0,0.130874 -0.0527,0.248991 -0.13808,0.33439 -0.0854,0.0854 -0.20352,0.13808 -0.33439,0.13808 h -3.49628 -3.49628 c -0.13088,0 -0.24899,-0.05268 -0.33439,-0.13808 -0.0854,-0.0854 -0.13808,-0.203516 -0.13808,-0.33439 V 30.243287 c 0,-0.261748 0.21072,-0.47247 0.47247,-0.47247 z"
       id="rect821-5-7"
       inkscape:connector-curvature="0"
       sodipodi:nodetypes="sssssscsssss" />
    <path
       style="opacity:0.68599997;fill:#b94d1d;fill-opacity:1;stroke:none;stroke-width:0.86500001;stroke-linecap:round;stroke-linejoin:round;stroke-miterlimit:4;stroke-dasharray:none;stroke-dashoffset:0;stroke-opacity:1"
       d="m 131.44122,29.770821 h 6.99256 c 0.26175,0 0.47247,0.210721 0.47247,0.47247 v 12.307852 c 0,0.130874 -0.0527,0.248992 -0.13808,0.334391 -0.0854,0.0854 -0.20352,0.13808 -0.33439,0.13808 h -3.49628 -3.49628 c -0.13088,0 -0.24899,-0.05268 -0.33439,-0.13808 -0.0854,-0.0854 -0.13808,-0.203517 -0.13808,-0.334391 V 30.243291 c 0,-0.261749 0.21072,-0.47247 0.47247,-0.47247 z"
       id="rect821-3-3-0"
       inkscape:connector-curvature="0"
       sodipodi:nodetypes="sssssscsssss" />
    <path
       style="opacity:0.68599997;fill:#b94d1d;fill-opacity:1;stroke:none;stroke-width:0.86500001;stroke-linecap:round;stroke-linejoin:round;stroke-miterlimit:4;stroke-dasharray:none;stroke-dashoffset:0;stroke-opacity:1"
       d="m 140.70163,29.770821 h 6.99256 c 0.26175,0 0.47247,0.210721 0.47247,0.47247 v 12.307852 c 0,0.130874 -0.0527,0.248992 -0.13808,0.334391 -0.0854,0.0854 -0.20352,0.13808 -0.33439,0.13808 h -3.49628 -3.49628 c -0.13088,0 -0.24899,-0.05268 -0.33439,-0.13808 -0.0854,-0.0854 -0.13808,-0.203517 -0.13808,-0.334391 V 30.243291 c 0,-0.261749 0.21072,-0.47247 0.47247,-0.47247 z"
       id="rect821-6-5-9"
       inkscape:connector-curvature="0"
       sodipodi:nodetypes="sssssscsssss" />
    <path
       style="opacity:0.68599997;fill:#b94d1d;fill-opacity:1;stroke:none;stroke-width:0.86500001;stroke-linecap:round;stroke-linejoin:round;stroke-miterlimit:4;stroke-dasharray:none;stroke-dashoffset:0;stroke-opacity:1"
       d="m 149.96203,29.770824 h 6.99256 c 0.26175,0 0.47247,0.210722 0.47247,0.472471 v 12.307852 c 0,0.130874 -0.0527,0.248992 -0.13808,0.334391 -0.0854,0.0854 -0.20352,0.13808 -0.33439,0.13808 h -3.49628 -3.49628 c -0.13088,0 -0.24899,-0.05268 -0.33439,-0.13808 -0.0854,-0.0854 -0.13808,-0.203517 -0.13808,-0.334391 V 30.243295 c 0,-0.261749 0.21072,-0.472471 0.47247,-0.472471 z"
       id="rect821-3-7-6-3"
       inkscape:connector-curvature="0"
       sodipodi:nodetypes="sssssscsssss" />
    <path
       style="opacity:0.68599997;fill:#b94d1d;fill-opacity:1;stroke:none;stroke-width:0.86500001;stroke-linecap:round;stroke-linejoin:round;stroke-miterlimit:4;stroke-dasharray:none;stroke-dashoffset:0;stroke-opacity:1"
       d="m 159.22247,29.770834 h 6.99256 c 0.26175,0 0.47247,0.210722 0.47247,0.472471 v 12.307852 c 0,0.130874 -0.0527,0.248991 -0.13808,0.33439 -0.0854,0.0854 -0.20352,0.13808 -0.33439,0.13808 h -3.49628 -3.49628 c -0.13088,0 -0.24899,-0.05268 -0.33439,-0.13808 -0.0854,-0.0854 -0.13808,-0.203516 -0.13808,-0.33439 V 30.243305 c 0,-0.261749 0.21072,-0.472471 0.47247,-0.472471 z"
       id="rect821-60"
       inkscape:connector-curvature="0"
       sodipodi:nodetypes="sssssscsssss" />
    <path
       style="opacity:0.68599997;fill:#b94d1d;fill-opacity:1;stroke:none;stroke-width:0.86500001;stroke-linecap:round;stroke-linejoin:round;stroke-miterlimit:4;stroke-dasharray:none;stroke-dashoffset:0;stroke-opacity:1"
       d="m 168.48289,29.770838 h 6.99256 c 0.26175,0 0.47247,0.210722 0.47247,0.47247 v 12.307853 c 0,0.130874 -0.0527,0.248991 -0.13808,0.33439 -0.0854,0.0854 -0.20352,0.13808 -0.33439,0.13808 h -3.49628 -3.49628 c -0.13088,0 -0.24899,-0.05268 -0.33439,-0.13808 -0.0854,-0.0854 -0.13808,-0.203516 -0.13808,-0.33439 V 30.243308 c 0,-0.261748 0.21072,-0.47247 0.47247,-0.47247 z"
       id="rect821-3-6"
       inkscape:connector-curvature="0"
       sodipodi:nodetypes="sssssscsssss" />
    <path
       style="opacity:1;fill:#2385bd;fill-opacity:1;stroke:none;stroke-width:0.86500001;stroke-linecap:round;stroke-linejoin:round;stroke-miterlimit:4;stroke-dasharray:none;stroke-dashoffset:0;stroke-opacity:1"
       d="m 177.7433,29.770838 h 6.99256 c 0.26175,0 0.47247,0.210722 0.47247,0.47247 v 12.307853 c 0,0.130874 -0.0527,0.248991 -0.13808,0.33439 -0.0854,0.0854 -0.20352,0.13808 -0.33439,0.13808 h -3.49628 -3.49628 c -0.13088,0 -0.24899,-0.05268 -0.33439,-0.13808 -0.0854,-0.0854 -0.13808,-0.203516 -0.13808,-0.33439 V 30.243308 c 0,-0.261748 0.21072,-0.47247 0.47247,-0.47247 z"
       id="rect821-6-2"
       inkscape:connector-curvature="0"
       sodipodi:nodetypes="sssssscsssss" />
    <path
       style="opacity:1;fill:#2385bd;fill-opacity:1;stroke:none;stroke-width:0.86500001;stroke-linecap:round;stroke-linejoin:round;stroke-miterlimit:4;stroke-dasharray:none;stroke-dashoffset:0;stroke-opacity:1"
       d="m 187.00372,29.770842 h 6.99256 c 0.26175,0 0.47247,0.210721 0.47247,0.47247 v 12.307852 c 0,0.130874 -0.0527,0.248992 -0.13808,0.334391 -0.0854,0.0854 -0.20351,0.13808 -0.33439,0.13808 H 190.5 187.00372 c -0.13088,0 -0.24899,-0.05268 -0.33439,-0.13808 -0.0854,-0.0854 -0.13808,-0.203517 -0.13808,-0.334391 V 30.243312 c 0,-0.261749 0.21072,-0.47247 0.47247,-0.47247 z"
       id="rect821-3-7-61"
       inkscape:connector-curvature="0"
       sodipodi:nodetypes="sssssscsssss" />
    <path
       style="opacity:1;fill:#2385bd;fill-opacity:1;stroke:none;stroke-width:0.86500001;stroke-linecap:round;stroke-linejoin:round;stroke-miterlimit:4;stroke-dasharray:none;stroke-dashoffset:0;stroke-opacity:1"
       d="m 196.26414,29.77083 h 6.99256 c 0.26175,0 0.47247,0.210722 0.47247,0.472471 v 12.307852 c 0,0.130874 -0.0527,0.248992 -0.13808,0.334391 -0.0854,0.0854 -0.20352,0.13808 -0.33439,0.13808 h -3.49628 -3.49628 c -0.13087,0 -0.24899,-0.05268 -0.33439,-0.13808 -0.0854,-0.0854 -0.13808,-0.203517 -0.13808,-0.334391 V 30.243301 c 0,-0.261749 0.21072,-0.472471 0.47247,-0.472471 z"
       id="rect821-5-8"
       inkscape:connector-curvature="0"
       sodipodi:nodetypes="sssssscsssss" />
    <path
       style="opacity:1;fill:#2385bd;fill-opacity:1;stroke:none;stroke-width:0.86500001;stroke-linecap:round;stroke-linejoin:round;stroke-miterlimit:4;stroke-dasharray:none;stroke-dashoffset:0;stroke-opacity:1"
       d="m 205.52456,29.770834 h 6.99256 c 0.26175,0 0.47247,0.210722 0.47247,0.472471 v 12.307852 c 0,0.130874 -0.0527,0.248991 -0.13808,0.33439 -0.0854,0.0854 -0.20352,0.13808 -0.33439,0.13808 h -3.49628 -3.49628 c -0.13087,0 -0.24899,-0.05268 -0.33439,-0.13808 -0.0854,-0.0854 -0.13808,-0.203516 -0.13808,-0.33439 V 30.243305 c 0,-0.261749 0.21073,-0.472471 0.47247,-0.472471 z"
       id="rect821-3-3-7"
       inkscape:connector-curvature="0"
       sodipodi:nodetypes="sssssscsssss" />
    <path
       style="opacity:1;fill:#2385bd;fill-opacity:1;stroke:none;stroke-width:0.86500001;stroke-linecap:round;stroke-linejoin:round;stroke-miterlimit:4;stroke-dasharray:none;stroke-dashoffset:0;stroke-opacity:1"
       d="m 214.78497,29.770834 h 6.99256 c 0.26175,0 0.47247,0.210722 0.47247,0.472471 v 12.307852 c 0,0.130874 -0.0527,0.248991 -0.13808,0.33439 -0.0854,0.0854 -0.20352,0.13808 -0.33439,0.13808 h -3.49628 -3.49628 c -0.13088,0 -0.24899,-0.05268 -0.33439,-0.13808 -0.0854,-0.0854 -0.13808,-0.203516 -0.13808,-0.33439 V 30.243305 c 0,-0.261749 0.21072,-0.472471 0.47247,-0.472471 z"
       id="rect821-6-5-92"
       inkscape:connector-curvature="0"
       sodipodi:nodetypes="sssssscsssss" />
    <path
       style="opacity:1;fill:#2385bd;fill-opacity:1;stroke:none;stroke-width:0.86500001;stroke-linecap:round;stroke-linejoin:round;stroke-miterlimit:4;stroke-dasharray:none;stroke-dashoffset:0;stroke-opacity:1"
       d="m 224.04539,29.770838 h 6.99256 c 0.26175,0 0.47247,0.210722 0.47247,0.47247 v 12.307853 c 0,0.130874 -0.0527,0.248991 -0.13808,0.33439 -0.0854,0.0854 -0.20352,0.13808 -0.33439,0.13808 h -3.49628 -3.49628 c -0.13088,0 -0.24899,-0.05268 -0.33439,-0.13808 -0.0854,-0.0854 -0.13808,-0.203516 -0.13808,-0.33439 V 30.243308 c 0,-0.261748 0.21072,-0.47247 0.47247,-0.47247 z"
       id="rect821-3-7-6-0"
       inkscape:connector-curvature="0"
       sodipodi:nodetypes="sssssscsssss" />
    <g
       aria-label="0"
       style="font-style:normal;font-weight:normal;font-size:5.92120838px;line-height:1.25;font-family:sans-serif;letter-spacing:0px;word-spacing:0px;fill:#ffffff;fill-opacity:1;stroke:none;stroke-width:0.14803021"
       id="text962">
      <path
         d="m 12.224862,20.696976 q -0.45103,0 -0.679436,0.445247 -0.225514,0.442356 -0.225514,1.33285 0,0.887603 0.225514,1.33285 0.228406,0.442356 0.679436,0.442356 0.453921,0 0.679435,-0.442356 0.228406,-0.445247 0.228406,-1.33285 0,-0.890494 -0.228406,-1.33285 -0.225514,-0.445247 -0.679435,-0.445247 z m 0,-0.462595 q 0.725695,0 1.107335,0.575352 0.384532,0.572461 0.384532,1.66534 0,1.089988 -0.384532,1.66534 -0.38164,0.572461 -1.107335,0.572461 -0.725695,0 -1.110227,-0.572461 -0.38164,-0.575352 -0.38164,-1.66534 0,-1.092879 0.38164,-1.66534 0.384532,-0.575352 1.110227,-0.575352 z"
         style="fill:#ffffff;fill-opacity:1;stroke-width:0.14803021"
         id="path858" />
    </g>
    <g
       aria-label="2"
       style="font-style:normal;font-weight:normal;font-size:5.92120838px;line-height:1.25;font-family:sans-serif;letter-spacing:0px;word-spacing:0px;fill:#ffffff;fill-opacity:1;stroke:none;stroke-width:0.14803021"
       id="text962-2">
      <path
         d="m 30.000437,24.137522 h 2.038306 v 0.491506 h -2.740872 v -0.491506 q 0.33249,-0.344055 0.904951,-0.922298 0.575351,-0.581134 0.722803,-0.748825 0.280448,-0.315142 0.390314,-0.531983 0.112758,-0.219732 0.112758,-0.430791 0,-0.344055 -0.242862,-0.560896 -0.239971,-0.216841 -0.627394,-0.216841 -0.274665,0 -0.581134,0.09541 -0.303578,0.09541 -0.650523,0.289122 v -0.589808 q 0.352728,-0.14167 0.659197,-0.21395 0.306468,-0.07228 0.560895,-0.07228 0.670762,0 1.06975,0.335381 0.398988,0.335381 0.398988,0.896277 0,0.265992 -0.101193,0.505963 -0.0983,0.237079 -0.361402,0.560895 -0.07228,0.08385 -0.459703,0.485725 -0.387423,0.398987 -1.092879,1.1189 z"
         style="fill:#ffffff;fill-opacity:1;stroke-width:0.14803021"
         id="path861" />
    </g>
    <g
       aria-label="8"
       style="font-style:normal;font-weight:normal;font-size:5.92120838px;line-height:1.25;font-family:sans-serif;letter-spacing:0px;word-spacing:0px;fill:#ffffff;fill-opacity:1;stroke:none;stroke-width:0.14803021"
       id="text962-2-7">
      <path
         d="m 86.100763,22.579157 q -0.416335,0 -0.656306,0.222623 -0.237079,0.222624 -0.237079,0.612938 0,0.390314 0.237079,0.612938 0.239971,0.222623 0.656306,0.222623 0.416335,0 0.656306,-0.222623 0.239971,-0.225515 0.239971,-0.612938 0,-0.390314 -0.239971,-0.612938 -0.23708,-0.222623 -0.656306,-0.222623 z m -0.584025,-0.248645 q -0.375858,-0.09252 -0.586917,-0.349837 -0.208167,-0.257318 -0.208167,-0.627393 0,-0.517528 0.367184,-0.818214 0.370075,-0.300687 1.011925,-0.300687 0.644741,0 1.011925,0.300687 0.367185,0.300686 0.367185,0.818214 0,0.370075 -0.211059,0.627393 -0.208167,0.257318 -0.581134,0.349837 0.422117,0.0983 0.656306,0.384532 0.237079,0.28623 0.237079,0.699674 0,0.627394 -0.384531,0.962775 -0.381641,0.335381 -1.095771,0.335381 -0.71413,0 -1.098662,-0.335381 -0.38164,-0.335381 -0.38164,-0.962775 0,-0.413444 0.23708,-0.699674 0.237079,-0.28623 0.659197,-0.384532 z m -0.21395,-0.922297 q 0,0.335381 0.208167,0.52331 0.211059,0.187929 0.589808,0.187929 0.375858,0 0.586917,-0.187929 0.21395,-0.187929 0.21395,-0.52331 0,-0.335381 -0.21395,-0.52331 -0.211059,-0.187929 -0.586917,-0.187929 -0.378749,0 -0.589808,0.187929 -0.208167,0.187929 -0.208167,0.52331 z"
         style="fill:#ffffff;fill-opacity:1;stroke-width:0.14803021"
         id="path864" />
    </g>
    <g
       aria-label="18"
       style="font-style:normal;font-weight:normal;font-size:5.92120838px;line-height:1.25;font-family:sans-serif;letter-spacing:0px;word-spacing:0px;fill:#ffffff;fill-opacity:1;stroke:none;stroke-width:0.14803021"
       id="text962-2-7-9">
      <path
         d="m 177.79615,24.137522 h 0.9541 v -3.293094 l -1.03794,0.208167 v -0.531983 l 1.03216,-0.208168 h 0.58403 v 3.825078 h 0.9541 v 0.491506 h -2.48645 z"
         style="fill:#ffffff;fill-opacity:1;stroke-width:0.14803021"
         id="path867" />
      <path
         d="m 182.71411,22.579157 q -0.41634,0 -0.65631,0.222623 -0.23708,0.222624 -0.23708,0.612938 0,0.390314 0.23708,0.612938 0.23997,0.222623 0.65631,0.222623 0.41633,0 0.6563,-0.222623 0.23997,-0.225515 0.23997,-0.612938 0,-0.390314 -0.23997,-0.612938 -0.23708,-0.222623 -0.6563,-0.222623 z m -0.58403,-0.248645 q -0.37586,-0.09252 -0.58691,-0.349837 -0.20817,-0.257318 -0.20817,-0.627393 0,-0.517528 0.36718,-0.818214 0.37008,-0.300687 1.01193,-0.300687 0.64474,0 1.01192,0.300687 0.36719,0.300686 0.36719,0.818214 0,0.370075 -0.21106,0.627393 -0.20817,0.257318 -0.58114,0.349837 0.42212,0.0983 0.65631,0.384532 0.23708,0.28623 0.23708,0.699674 0,0.627394 -0.38453,0.962775 -0.38164,0.335381 -1.09577,0.335381 -0.71413,0 -1.09866,-0.335381 -0.38164,-0.335381 -0.38164,-0.962775 0,-0.413444 0.23708,-0.699674 0.23708,-0.28623 0.65919,-0.384532 z m -0.21395,-0.922297 q 0,0.335381 0.20817,0.52331 0.21106,0.187929 0.58981,0.187929 0.37586,0 0.58691,-0.187929 0.21395,-0.187929 0.21395,-0.52331 0,-0.335381 -0.21395,-0.52331 -0.21105,-0.187929 -0.58691,-0.187929 -0.37875,0 -0.58981,0.187929 -0.20817,0.187929 -0.20817,0.52331 z"
         style="fill:#ffffff;fill-opacity:1;stroke-width:0.14803021"
         id="path869" />
    </g>
  </g>
</svg>
