<?xml version="1.0" encoding="UTF-8" standalone="no"?>
<!-- Created with Inkscape (http://www.inkscape.org/) -->

<svg
   xmlns:dc="http://purl.org/dc/elements/1.1/"
   xmlns:cc="http://creativecommons.org/ns#"
   xmlns:rdf="http://www.w3.org/1999/02/22-rdf-syntax-ns#"
   xmlns:svg="http://www.w3.org/2000/svg"
   xmlns="http://www.w3.org/2000/svg"
   xmlns:sodipodi="http://sodipodi.sourceforge.net/DTD/sodipodi-0.dtd"
   xmlns:inkscape="http://www.inkscape.org/namespaces/inkscape"
   width="220.92709mm"
   height="44.316158mm"
   viewBox="0 0 220.92709 44.316158"
   version="1.1"
   id="svg8"
   inkscape:version="0.92.2 (5c3e80d, 2017-08-06)"
   sodipodi:docname="creneaux.svg">
  <defs
     id="defs2" />
  <sodipodi:namedview
     id="base"
     pagecolor="#000000"
     bordercolor="#666666"
     borderopacity="1.0"
     inkscape:pageopacity="1"
     inkscape:pageshadow="2"
     inkscape:zoom="2.8"
     inkscape:cx="590.94965"
     inkscape:cy="70.051831"
     inkscape:document-units="mm"
     inkscape:current-layer="layer1"
     showgrid="false"
     showguides="true"
     inkscape:guide-bbox="true"
     fit-margin-top="0"
     fit-margin-left="0"
     fit-margin-right="0"
     fit-margin-bottom="0"
     inkscape:window-width="1920"
     inkscape:window-height="1051"
     inkscape:window-x="0"
     inkscape:window-y="0"
     inkscape:window-maximized="1">
    <inkscape:grid
       type="xygrid"
       id="grid819"
       originx="-10.583333"
       originy="-232.44945" />
    <sodipodi:guide
       position="-2.7769252e-08,32.133879"
       orientation="1,0"
       id="guide964"
       inkscape:locked="false" />
    <sodipodi:guide
       position="14.552083,40.071379"
       orientation="0,1"
       id="guide966"
       inkscape:locked="false" />
    <sodipodi:guide
       position="18.520833,30.810959"
       orientation="1,0"
       id="guide968"
       inkscape:locked="false" />
    <sodipodi:guide
       position="74.083335,30.810959"
       orientation="1,0"
       id="guide970"
       inkscape:locked="false" />
    <sodipodi:guide
       position="166.6875,28.165119"
       orientation="1,0"
       id="guide972"
       inkscape:locked="false" />
  </sodipodi:namedview>
  <metadata
     id="metadata5">
    <rdf:RDF>
      <cc:Work
         rdf:about="">
        <dc:format>image/svg+xml</dc:format>
        <dc:type
           rdf:resource="http://purl.org/dc/dcmitype/StillImage" />
        <dc:title />
      </cc:Work>
    </rdf:RDF>
  </metadata>
  <g
     inkscape:label="Calque 1"
     inkscape:groupmode="layer"
     id="layer1"
     transform="translate(-10.583333,-20.234381)">
    <path
       style="opacity:1;fill:#2385bd;fill-opacity:1;stroke:none;stroke-width:0.86500001;stroke-linecap:round;stroke-linejoin:round;stroke-miterlimit:4;stroke-dasharray:none;stroke-dashoffset:0;stroke-opacity:1"
       d="m 11.055804,29.77083 h 6.992559 c 0.261749,0 0.472471,0.210722 0.472471,0.472471 v 12.307852 c 0,0.130874 -0.05268,0.248992 -0.13808,0.334391 -0.0854,0.0854 -0.203517,0.13808 -0.334391,0.13808 h -3.49628 -3.496279 c -0.130875,0 -0.248992,-0.05268 -0.334391,-0.13808 -0.0854,-0.0854 -0.13808,-0.203517 -0.13808,-0.334391 V 30.243301 c 0,-0.261749 0.210722,-0.472471 0.472471,-0.472471 z"
       id="rect821"
       inkscape:connector-curvature="0"
       sodipodi:nodetypes="sssssscsssss" />
    <path
       style="opacity:1;fill:#2385bd;fill-opacity:1;stroke:none;stroke-width:0.86500001;stroke-linecap:round;stroke-linejoin:round;stroke-miterlimit:4;stroke-dasharray:none;stroke-dashoffset:0;stroke-opacity:1"
       d="m 20.316219,29.770834 h 6.992559 c 0.261749,0 0.472471,0.210722 0.472471,0.472471 v 12.307852 c 0,0.130874 -0.05268,0.248991 -0.13808,0.33439 -0.0854,0.0854 -0.203517,0.13808 -0.334391,0.13808 h -3.49628 -3.496279 c -0.130875,0 -0.248992,-0.05268 -0.334391,-0.13808 -0.0854,-0.0854 -0.13808,-0.203516 -0.13808,-0.33439 V 30.243305 c 0,-0.261749 0.210722,-0.472471 0.472471,-0.472471 z"
       id="rect821-3"
       inkscape:connector-curvature="0"
       sodipodi:nodetypes="sssssscsssss" />
    <path
       style="opacity:1;fill:#b94d9b;fill-opacity:1;stroke:none;stroke-width:0.86500001;stroke-linecap:round;stroke-linejoin:round;stroke-miterlimit:4;stroke-dasharray:none;stroke-dashoffset:0;stroke-opacity:1"
       d="m 29.576637,29.770834 h 6.992559 c 0.261749,0 0.472471,0.210722 0.472471,0.472471 v 12.307852 c 0,0.130874 -0.05268,0.248991 -0.13808,0.33439 -0.0854,0.0854 -0.203517,0.13808 -0.334391,0.13808 h -3.49628 -3.496279 c -0.130875,0 -0.248992,-0.05268 -0.334391,-0.13808 -0.0854,-0.0854 -0.13808,-0.203516 -0.13808,-0.33439 V 30.243305 c 0,-0.261749 0.210722,-0.472471 0.472471,-0.472471 z"
       id="rect821-6"
       inkscape:connector-curvature="0"
       sodipodi:nodetypes="sssssscsssss" />
    <path
       style="opacity:1;fill:#b94d9b;fill-opacity:1;stroke:none;stroke-width:0.86500001;stroke-linecap:round;stroke-linejoin:round;stroke-miterlimit:4;stroke-dasharray:none;stroke-dashoffset:0;stroke-opacity:1"
       d="m 38.837053,29.770838 h 6.992559 c 0.261749,0 0.472471,0.210722 0.472471,0.47247 v 12.307853 c 0,0.130874 -0.05268,0.248991 -0.13808,0.33439 -0.0854,0.0854 -0.203517,0.13808 -0.334391,0.13808 h -3.49628 -3.496279 c -0.130875,0 -0.248992,-0.05268 -0.334391,-0.13808 -0.0854,-0.0854 -0.13808,-0.203516 -0.13808,-0.33439 V 30.243308 c 0,-0.261748 0.210722,-0.47247 0.472471,-0.47247 z"
       id="rect821-3-7"
       inkscape:connector-curvature="0"
       sodipodi:nodetypes="sssssscsssss" />
    <path
       style="opacity:1;fill:#b94d9b;fill-opacity:1;stroke:none;stroke-width:0.86500001;stroke-linecap:round;stroke-linejoin:round;stroke-miterlimit:4;stroke-dasharray:none;stroke-dashoffset:0;stroke-opacity:1"
       d="m 48.097474,29.770826 h 6.99256 c 0.261749,0 0.472471,0.210722 0.472471,0.472471 v 12.307852 c 0,0.130874 -0.05268,0.248992 -0.13808,0.334391 -0.0854,0.0854 -0.203517,0.13808 -0.334391,0.13808 h -3.49628 -3.49628 c -0.130874,0 -0.248992,-0.05268 -0.334391,-0.13808 -0.0854,-0.0854 -0.138079,-0.203517 -0.138079,-0.334391 V 30.243297 c 0,-0.261749 0.210722,-0.472471 0.47247,-0.472471 z"
       id="rect821-5"
       inkscape:connector-curvature="0"
       sodipodi:nodetypes="sssssscsssss" />
    <path
       style="opacity:1;fill:#b94d9b;fill-opacity:1;stroke:none;stroke-width:0.86500001;stroke-linecap:round;stroke-linejoin:round;stroke-miterlimit:4;stroke-dasharray:none;stroke-dashoffset:0;stroke-opacity:1"
       d="m 57.357888,29.77083 h 6.99256 c 0.261749,0 0.472471,0.210722 0.472471,0.472471 v 12.307852 c 0,0.130874 -0.05268,0.248992 -0.13808,0.334391 -0.0854,0.0854 -0.203517,0.13808 -0.334391,0.13808 h -3.49628 -3.49628 c -0.130874,0 -0.248992,-0.05268 -0.334391,-0.13808 -0.0854,-0.0854 -0.138079,-0.203517 -0.138079,-0.334391 V 30.243301 c 0,-0.261749 0.210722,-0.472471 0.47247,-0.472471 z"
       id="rect821-3-3"
       inkscape:connector-curvature="0"
       sodipodi:nodetypes="sssssscsssss" />
    <path
       style="opacity:1;fill:#b94d9b;fill-opacity:1;stroke:none;stroke-width:0.86500001;stroke-linecap:round;stroke-linejoin:round;stroke-miterlimit:4;stroke-dasharray:none;stroke-dashoffset:0;stroke-opacity:1"
       d="m 66.618299,29.77083 h 6.99256 c 0.261748,0 0.47247,0.210722 0.47247,0.472471 v 12.307852 c 0,0.130874 -0.05268,0.248992 -0.13808,0.334391 -0.0854,0.0854 -0.203516,0.13808 -0.33439,0.13808 h -3.49628 -3.49628 c -0.130875,0 -0.248992,-0.05268 -0.334391,-0.13808 -0.0854,-0.0854 -0.13808,-0.203517 -0.13808,-0.334391 V 30.243301 c 0,-0.261749 0.210722,-0.472471 0.472471,-0.472471 z"
       id="rect821-6-5"
       inkscape:connector-curvature="0"
       sodipodi:nodetypes="sssssscsssss" />
    <path
       style="opacity:1;fill:#b94d9b;fill-opacity:1;stroke:none;stroke-width:0.86500001;stroke-linecap:round;stroke-linejoin:round;stroke-miterlimit:4;stroke-dasharray:none;stroke-dashoffset:0;stroke-opacity:1"
       d="m 75.878721,29.770834 h 6.992559 c 0.261749,0 0.472471,0.210722 0.472471,0.472471 v 12.307852 c 0,0.130874 -0.05268,0.248991 -0.13808,0.33439 -0.0854,0.0854 -0.203517,0.13808 -0.334391,0.13808 H 79.375 75.878721 c -0.130875,0 -0.248992,-0.05268 -0.334391,-0.13808 -0.0854,-0.0854 -0.13808,-0.203516 -0.13808,-0.33439 V 30.243305 c 0,-0.261749 0.210722,-0.472471 0.472471,-0.472471 z"
       id="rect821-3-7-6"
       inkscape:connector-curvature="0"
       sodipodi:nodetypes="sssssscsssss" />
    <path
       style="opacity:1;fill:#b94d1d;fill-opacity:0.68627451;stroke:none;stroke-width:0.86500001;stroke-linecap:round;stroke-linejoin:round;stroke-miterlimit:4;stroke-dasharray:none;stroke-dashoffset:0;stroke-opacity:1"
       d="m 85.139127,29.770821 h 6.99256 c 0.261749,0 0.47247,0.210721 0.47247,0.47247 v 12.307852 c 0,0.130874 -0.05268,0.248992 -0.138079,0.334391 -0.0854,0.0854 -0.203517,0.13808 -0.334391,0.13808 h -3.49628 -3.49628 c -0.130875,0 -0.248992,-0.05268 -0.334391,-0.13808 -0.0854,-0.0854 -0.13808,-0.203517 -0.13808,-0.334391 V 30.243291 c 0,-0.261749 0.210722,-0.47247 0.472471,-0.47247 z"
       id="rect821-2"
       inkscape:connector-curvature="0"
       sodipodi:nodetypes="sssssscsssss" />
    <path
       style="opacity:0.68599997;fill:#b94d1d;fill-opacity:1;stroke:none;stroke-width:0.86500001;stroke-linecap:round;stroke-linejoin:round;stroke-miterlimit:4;stroke-dasharray:none;stroke-dashoffset:0;stroke-opacity:1"
       d="m 94.399541,29.770824 h 6.992559 c 0.26175,0 0.47247,0.210722 0.47247,0.472471 v 12.307852 c 0,0.130874 -0.0527,0.248992 -0.13808,0.334391 -0.0854,0.0854 -0.20352,0.13808 -0.33439,0.13808 h -3.49628 -3.496279 c -0.130875,0 -0.248992,-0.05268 -0.334391,-0.13808 -0.0854,-0.0854 -0.138079,-0.203517 -0.138079,-0.334391 V 30.243295 c 0,-0.261749 0.210721,-0.472471 0.47247,-0.472471 z"
       id="rect821-3-9"
       inkscape:connector-curvature="0"
       sodipodi:nodetypes="sssssscsssss" />
    <path
       style="opacity:0.68599997;fill:#b94d1d;fill-opacity:1;stroke:none;stroke-width:0.86500001;stroke-linecap:round;stroke-linejoin:round;stroke-miterlimit:4;stroke-dasharray:none;stroke-dashoffset:0;stroke-opacity:1"
       d="m 103.65996,29.770824 h 6.99256 c 0.26175,0 0.47247,0.210722 0.47247,0.472471 v 12.307852 c 0,0.130874 -0.0527,0.248992 -0.13808,0.334391 -0.0854,0.0854 -0.20351,0.13808 -0.33439,0.13808 h -3.49628 -3.49628 c -0.13088,0 -0.24899,-0.05268 -0.33439,-0.13808 -0.0854,-0.0854 -0.13808,-0.203517 -0.13808,-0.334391 V 30.243295 c 0,-0.261749 0.21072,-0.472471 0.47247,-0.472471 z"
       id="rect821-6-1"
       inkscape:connector-curvature="0"
       sodipodi:nodetypes="sssssscsssss" />
    <path
       style="opacity:0.68599997;fill:#b94d1d;fill-opacity:1;stroke:none;stroke-width:0.86500001;stroke-linecap:round;stroke-linejoin:round;stroke-miterlimit:4;stroke-dasharray:none;stroke-dashoffset:0;stroke-opacity:1"
       d="m 112.92038,29.770828 h 6.99256 c 0.26175,0 0.47247,0.210722 0.47247,0.472471 v 12.307852 c 0,0.130874 -0.0527,0.248992 -0.13808,0.334391 -0.0854,0.0854 -0.20352,0.13808 -0.33439,0.13808 h -3.49628 -3.49628 c -0.13088,0 -0.24899,-0.05268 -0.33439,-0.13808 -0.0854,-0.0854 -0.13808,-0.203517 -0.13808,-0.334391 V 30.243299 c 0,-0.261749 0.21072,-0.472471 0.47247,-0.472471 z"
       id="rect821-3-7-2"
       inkscape:connector-curvature="0"
       sodipodi:nodetypes="sssssscsssss" />
    <path
       style="opacity:0.68599997;fill:#b94d1d;fill-opacity:1;stroke:none;stroke-width:0.86500001;stroke-linecap:round;stroke-linejoin:round;stroke-miterlimit:4;stroke-dasharray:none;stroke-dashoffset:0;stroke-opacity:1"
       d="m 122.1808,29.770817 h 6.99256 c 0.26175,0 0.47247,0.210722 0.47247,0.47247 V 42.55114 c 0,0.130874 -0.0527,0.248991 -0.13808,0.33439 -0.0854,0.0854 -0.20352,0.13808 -0.33439,0.13808 h -3.49628 -3.49628 c -0.13088,0 -0.24899,-0.05268 -0.33439,-0.13808 -0.0854,-0.0854 -0.13808,-0.203516 -0.13808,-0.33439 V 30.243287 c 0,-0.261748 0.21072,-0.47247 0.47247,-0.47247 z"
       id="rect821-5-7"
       inkscape:connector-curvature="0"
       sodipodi:nodetypes="sssssscsssss" />
    <path
       style="opacity:0.68599997;fill:#b94d1d;fill-opacity:1;stroke:none;stroke-width:0.86500001;stroke-linecap:round;stroke-linejoin:round;stroke-miterlimit:4;stroke-dasharray:none;stroke-dashoffset:0;stroke-opacity:1"
       d="m 131.44122,29.770821 h 6.99256 c 0.26175,0 0.47247,0.210721 0.47247,0.47247 v 12.307852 c 0,0.130874 -0.0527,0.248992 -0.13808,0.334391 -0.0854,0.0854 -0.20352,0.13808 -0.33439,0.13808 h -3.49628 -3.49628 c -0.13088,0 -0.24899,-0.05268 -0.33439,-0.13808 -0.0854,-0.0854 -0.13808,-0.203517 -0.13808,-0.334391 V 30.243291 c 0,-0.261749 0.21072,-0.47247 0.47247,-0.47247 z"
       id="rect821-3-3-0"
       inkscape:connector-curvature="0"
       sodipodi:nodetypes="sssssscsssss" />
    <path
       style="opacity:0.68599997;fill:#b94d1d;fill-opacity:1;stroke:none;stroke-width:0.86500001;stroke-linecap:round;stroke-linejoin:round;stroke-miterlimit:4;stroke-dasharray:none;stroke-dashoffset:0;stroke-opacity:1"
       d="m 140.70163,29.770821 h 6.99256 c 0.26175,0 0.47247,0.210721 0.47247,0.47247 v 12.307852 c 0,0.130874 -0.0527,0.248992 -0.13808,0.334391 -0.0854,0.0854 -0.20352,0.13808 -0.33439,0.13808 h -3.49628 -3.49628 c -0.13088,0 -0.24899,-0.05268 -0.33439,-0.13808 -0.0854,-0.0854 -0.13808,-0.203517 -0.13808,-0.334391 V 30.243291 c 0,-0.261749 0.21072,-0.47247 0.47247,-0.47247 z"
       id="rect821-6-5-9"
       inkscape:connector-curvature="0"
       sodipodi:nodetypes="sssssscsssss" />
    <path
       style="opacity:0.68599997;fill:#b94d1d;fill-opacity:1;stroke:none;stroke-width:0.86500001;stroke-linecap:round;stroke-linejoin:round;stroke-miterlimit:4;stroke-dasharray:none;stroke-dashoffset:0;stroke-opacity:1"
       d="m 149.96203,29.770824 h 6.99256 c 0.26175,0 0.47247,0.210722 0.47247,0.472471 v 12.307852 c 0,0.130874 -0.0527,0.248992 -0.13808,0.334391 -0.0854,0.0854 -0.20352,0.13808 -0.33439,0.13808 h -3.49628 -3.49628 c -0.13088,0 -0.24899,-0.05268 -0.33439,-0.13808 -0.0854,-0.0854 -0.13808,-0.203517 -0.13808,-0.334391 V 30.243295 c 0,-0.261749 0.21072,-0.472471 0.47247,-0.472471 z"
       id="rect821-3-7-6-3"
       inkscape:connector-curvature="0"
       sodipodi:nodetypes="sssssscsssss" />
    <path
       style="opacity:0.68599997;fill:#b94d1d;fill-opacity:1;stroke:none;stroke-width:0.86500001;stroke-linecap:round;stroke-linejoin:round;stroke-miterlimit:4;stroke-dasharray:none;stroke-dashoffset:0;stroke-opacity:1"
       d="m 159.22247,29.770834 h 6.99256 c 0.26175,0 0.47247,0.210722 0.47247,0.472471 v 12.307852 c 0,0.130874 -0.0527,0.248991 -0.13808,0.33439 -0.0854,0.0854 -0.20352,0.13808 -0.33439,0.13808 h -3.49628 -3.49628 c -0.13088,0 -0.24899,-0.05268 -0.33439,-0.13808 -0.0854,-0.0854 -0.13808,-0.203516 -0.13808,-0.33439 V 30.243305 c 0,-0.261749 0.21072,-0.472471 0.47247,-0.472471 z"
       id="rect821-60"
       inkscape:connector-curvature="0"
       sodipodi:nodetypes="sssssscsssss" />
    <path
       style="opacity:0.68599997;fill:#b94d1d;fill-opacity:1;stroke:none;stroke-width:0.86500001;stroke-linecap:round;stroke-linejoin:round;stroke-miterlimit:4;stroke-dasharray:none;stroke-dashoffset:0;stroke-opacity:1"
       d="m 168.48289,29.770838 h 6.99256 c 0.26175,0 0.47247,0.210722 0.47247,0.47247 v 12.307853 c 0,0.130874 -0.0527,0.248991 -0.13808,0.33439 -0.0854,0.0854 -0.20352,0.13808 -0.33439,0.13808 h -3.49628 -3.49628 c -0.13088,0 -0.24899,-0.05268 -0.33439,-0.13808 -0.0854,-0.0854 -0.13808,-0.203516 -0.13808,-0.33439 V 30.243308 c 0,-0.261748 0.21072,-0.47247 0.47247,-0.47247 z"
       id="rect821-3-6"
       inkscape:connector-curvature="0"
       sodipodi:nodetypes="sssssscsssss" />
    <path
       style="opacity:1;fill:#2385bd;fill-opacity:1;stroke:none;stroke-width:0.86500001;stroke-linecap:round;stroke-linejoin:round;stroke-miterlimit:4;stroke-dasharray:none;stroke-dashoffset:0;stroke-opacity:1"
       d="m 177.7433,29.770838 h 6.99256 c 0.26175,0 0.47247,0.210722 0.47247,0.47247 v 12.307853 c 0,0.130874 -0.0527,0.248991 -0.13808,0.33439 -0.0854,0.0854 -0.20352,0.13808 -0.33439,0.13808 h -3.49628 -3.49628 c -0.13088,0 -0.24899,-0.05268 -0.33439,-0.13808 -0.0854,-0.0854 -0.13808,-0.203516 -0.13808,-0.33439 V 30.243308 c 0,-0.261748 0.21072,-0.47247 0.47247,-0.47247 z"
       id="rect821-6-2"
       inkscape:connector-curvature="0"
       sodipodi:nodetypes="sssssscsssss" />
    <path
       style="opacity:1;fill:#2385bd;fill-opacity:1;stroke:none;stroke-width:0.86500001;stroke-linecap:round;stroke-linejoin:round;stroke-miterlimit:4;stroke-dasharray:none;stroke-dashoffset:0;stroke-opacity:1"
       d="m 187.00372,29.770842 h 6.99256 c 0.26175,0 0.47247,0.210721 0.47247,0.47247 v 12.307852 c 0,0.130874 -0.0527,0.248992 -0.13808,0.334391 -0.0854,0.0854 -0.20351,0.13808 -0.33439,0.13808 H 190.5 187.00372 c -0.13088,0 -0.24899,-0.05268 -0.33439,-0.13808 -0.0854,-0.0854 -0.13808,-0.203517 -0.13808,-0.334391 V 30.243312 c 0,-0.261749 0.21072,-0.47247 0.47247,-0.47247 z"
       id="rect821-3-7-61"
       inkscape:connector-curvature="0"
       sodipodi:nodetypes="sssssscsssss" />
    <path
       style="opacity:1;fill:#2385bd;fill-opacity:1;stroke:none;stroke-width:0.86500001;stroke-linecap:round;stroke-linejoin:round;stroke-miterlimit:4;stroke-dasharray:none;stroke-dashoffset:0;stroke-opacity:1"
       d="m 196.26414,29.77083 h 6.99256 c 0.26175,0 0.47247,0.210722 0.47247,0.472471 v 12.307852 c 0,0.130874 -0.0527,0.248992 -0.13808,0.334391 -0.0854,0.0854 -0.20352,0.13808 -0.33439,0.13808 h -3.49628 -3.49628 c -0.13087,0 -0.24899,-0.05268 -0.33439,-0.13808 -0.0854,-0.0854 -0.13808,-0.203517 -0.13808,-0.334391 V 30.243301 c 0,-0.261749 0.21072,-0.472471 0.47247,-0.472471 z"
       id="rect821-5-8"
       inkscape:connector-curvature="0"
       sodipodi:nodetypes="sssssscsssss" />
    <path
       style="opacity:1;fill:#2385bd;fill-opacity:1;stroke:none;stroke-width:0.86500001;stroke-linecap:round;stroke-linejoin:round;stroke-miterlimit:4;stroke-dasharray:none;stroke-dashoffset:0;stroke-opacity:1"
       d="m 205.52456,29.770834 h 6.99256 c 0.26175,0 0.47247,0.210722 0.47247,0.472471 v 12.307852 c 0,0.130874 -0.0527,0.248991 -0.13808,0.33439 -0.0854,0.0854 -0.20352,0.13808 -0.33439,0.13808 h -3.49628 -3.49628 c -0.13087,0 -0.24899,-0.05268 -0.33439,-0.13808 -0.0854,-0.0854 -0.13808,-0.203516 -0.13808,-0.33439 V 30.243305 c 0,-0.261749 0.21073,-0.472471 0.47247,-0.472471 z"
       id="rect821-3-3-7"
       inkscape:connector-curvature="0"
       sodipodi:nodetypes="sssssscsssss" />
    <path
       style="opacity:1;fill:#2385bd;fill-opacity:1;stroke:none;stroke-width:0.86500001;stroke-linecap:round;stroke-linejoin:round;stroke-miterlimit:4;stroke-dasharray:none;stroke-dashoffset:0;stroke-opacity:1"
       d="m 214.78497,29.770834 h 6.99256 c 0.26175,0 0.47247,0.210722 0.47247,0.472471 v 12.307852 c 0,0.130874 -0.0527,0.248991 -0.13808,0.33439 -0.0854,0.0854 -0.20352,0.13808 -0.33439,0.13808 h -3.49628 -3.49628 c -0.13088,0 -0.24899,-0.05268 -0.33439,-0.13808 -0.0854,-0.0854 -0.13808,-0.203516 -0.13808,-0.33439 V 30.243305 c 0,-0.261749 0.21072,-0.472471 0.47247,-0.472471 z"
       id="rect821-6-5-92"
       inkscape:connector-curvature="0"
       sodipodi:nodetypes="sssssscsssss" />
    <path
       style="opacity:1;fill:#2385bd;fill-opacity:1;stroke:none;stroke-width:0.86500001;stroke-linecap:round;stroke-linejoin:round;stroke-miterlimit:4;stroke-dasharray:none;stroke-dashoffset:0;stroke-opacity:1"
       d="m 224.04539,29.770838 h 6.99256 c 0.26175,0 0.47247,0.210722 0.47247,0.47247 v 12.307853 c 0,0.130874 -0.0527,0.248991 -0.13808,0.33439 -0.0854,0.0854 -0.20352,0.13808 -0.33439,0.13808 h -3.49628 -3.49628 c -0.13088,0 -0.24899,-0.05268 -0.33439,-0.13808 -0.0854,-0.0854 -0.13808,-0.203516 -0.13808,-0.33439 V 30.243308 c 0,-0.261748 0.21072,-0.47247 0.47247,-0.47247 z"
       id="rect821-3-7-6-0"
       inkscape:connector-curvature="0"
       sodipodi:nodetypes="sssssscsssss" />
    <g
       aria-label="0"
       style="font-style:normal;font-weight:normal;font-size:5.92120838px;line-height:1.25;font-family:sans-serif;letter-spacing:0px;word-spacing:0px;fill:#ffffff;fill-opacity:1;stroke:none;stroke-width:0.14803021"
       id="text962">
      <path
         d="m 12.224862,20.696976 q -0.45103,0 -0.679436,0.445247 -0.225514,0.442356 -0.225514,1.33285 0,0.887603 0.225514,1.33285 0.228406,0.442356 0.679436,0.442356 0.453921,0 0.679435,-0.442356 0.228406,-0.445247 0.228406,-1.33285 0,-0.890494 -0.228406,-1.33285 -0.225514,-0.445247 -0.679435,-0.445247 z m 0,-0.462595 q 0.725695,0 1.107335,0.575352 0.384532,0.572461 0.384532,1.66534 0,1.089988 -0.384532,1.66534 -0.38164,0.572461 -1.107335,0.572461 -0.725695,0 -1.110227,-0.572461 -0.38164,-0.575352 -0.38164,-1.66534 0,-1.092879 0.38164,-1.66534 0.384532,-0.575352 1.110227,-0.575352 z"
         style="fill:#ffffff;fill-opacity:1;stroke-width:0.14803021"
         id="path858"
         inkscape:connector-curvature="0" />
    </g>
    <g
       aria-label="2"
       style="font-style:normal;font-weight:normal;font-size:5.92120838px;line-height:1.25;font-family:sans-serif;letter-spacing:0px;word-spacing:0px;fill:#ffffff;fill-opacity:1;stroke:none;stroke-width:0.14803021"
       id="text962-2">
      <path
         d="m 30.000437,24.137522 h 2.038306 v 0.491506 h -2.740872 v -0.491506 q 0.33249,-0.344055 0.904951,-0.922298 0.575351,-0.581134 0.722803,-0.748825 0.280448,-0.315142 0.390314,-0.531983 0.112758,-0.219732 0.112758,-0.430791 0,-0.344055 -0.242862,-0.560896 -0.239971,-0.216841 -0.627394,-0.216841 -0.274665,0 -0.581134,0.09541 -0.303578,0.09541 -0.650523,0.289122 v -0.589808 q 0.352728,-0.14167 0.659197,-0.21395 0.306468,-0.07228 0.560895,-0.07228 0.670762,0 1.06975,0.335381 0.398988,0.335381 0.398988,0.896277 0,0.265992 -0.101193,0.505963 -0.0983,0.237079 -0.361402,0.560895 -0.07228,0.08385 -0.459703,0.485725 -0.387423,0.398987 -1.092879,1.1189 z"
         style="fill:#ffffff;fill-opacity:1;stroke-width:0.14803021"
         id="path861"
         inkscape:connector-curvature="0" />
    </g>
    <g
       aria-label="8"
       style="font-style:normal;font-weight:normal;font-size:5.92120838px;line-height:1.25;font-family:sans-serif;letter-spacing:0px;word-spacing:0px;fill:#ffffff;fill-opacity:1;stroke:none;stroke-width:0.14803021"
       id="text962-2-7">
      <path
         d="m 86.100763,22.579157 q -0.416335,0 -0.656306,0.222623 -0.237079,0.222624 -0.237079,0.612938 0,0.390314 0.237079,0.612938 0.239971,0.222623 0.656306,0.222623 0.416335,0 0.656306,-0.222623 0.239971,-0.225515 0.239971,-0.612938 0,-0.390314 -0.239971,-0.612938 -0.23708,-0.222623 -0.656306,-0.222623 z m -0.584025,-0.248645 q -0.375858,-0.09252 -0.586917,-0.349837 -0.208167,-0.257318 -0.208167,-0.627393 0,-0.517528 0.367184,-0.818214 0.370075,-0.300687 1.011925,-0.300687 0.644741,0 1.011925,0.300687 0.367185,0.300686 0.367185,0.818214 0,0.370075 -0.211059,0.627393 -0.208167,0.257318 -0.581134,0.349837 0.422117,0.0983 0.656306,0.384532 0.237079,0.28623 0.237079,0.699674 0,0.627394 -0.384531,0.962775 -0.381641,0.335381 -1.095771,0.335381 -0.71413,0 -1.098662,-0.335381 -0.38164,-0.335381 -0.38164,-0.962775 0,-0.413444 0.23708,-0.699674 0.237079,-0.28623 0.659197,-0.384532 z m -0.21395,-0.922297 q 0,0.335381 0.208167,0.52331 0.211059,0.187929 0.589808,0.187929 0.375858,0 0.586917,-0.187929 0.21395,-0.187929 0.21395,-0.52331 0,-0.335381 -0.21395,-0.52331 -0.211059,-0.187929 -0.586917,-0.187929 -0.378749,0 -0.589808,0.187929 -0.208167,0.187929 -0.208167,0.52331 z"
         style="fill:#ffffff;fill-opacity:1;stroke-width:0.14803021"
         id="path864"
         inkscape:connector-curvature="0" />
    </g>
    <g
       aria-label="18"
       style="font-style:normal;font-weight:normal;font-size:5.92120838px;line-height:1.25;font-family:sans-serif;letter-spacing:0px;word-spacing:0px;fill:#ffffff;fill-opacity:1;stroke:none;stroke-width:0.14803021"
       id="text962-2-7-9">
      <path
         d="m 177.79615,24.137522 h 0.9541 v -3.293094 l -1.03794,0.208167 v -0.531983 l 1.03216,-0.208168 h 0.58403 v 3.825078 h 0.9541 v 0.491506 h -2.48645 z"
         style="fill:#ffffff;fill-opacity:1;stroke-width:0.14803021"
         id="path867"
         inkscape:connector-curvature="0" />
      <path
         d="m 182.71411,22.579157 q -0.41634,0 -0.65631,0.222623 -0.23708,0.222624 -0.23708,0.612938 0,0.390314 0.23708,0.612938 0.23997,0.222623 0.65631,0.222623 0.41633,0 0.6563,-0.222623 0.23997,-0.225515 0.23997,-0.612938 0,-0.390314 -0.23997,-0.612938 -0.23708,-0.222623 -0.6563,-0.222623 z m -0.58403,-0.248645 q -0.37586,-0.09252 -0.58691,-0.349837 -0.20817,-0.257318 -0.20817,-0.627393 0,-0.517528 0.36718,-0.818214 0.37008,-0.300687 1.01193,-0.300687 0.64474,0 1.01192,0.300687 0.36719,0.300686 0.36719,0.818214 0,0.370075 -0.21106,0.627393 -0.20817,0.257318 -0.58114,0.349837 0.42212,0.0983 0.65631,0.384532 0.23708,0.28623 0.23708,0.699674 0,0.627394 -0.38453,0.962775 -0.38164,0.335381 -1.09577,0.335381 -0.71413,0 -1.09866,-0.335381 -0.38164,-0.335381 -0.38164,-0.962775 0,-0.413444 0.23708,-0.699674 0.23708,-0.28623 0.65919,-0.384532 z m -0.21395,-0.922297 q 0,0.335381 0.20817,0.52331 0.21106,0.187929 0.58981,0.187929 0.37586,0 0.58691,-0.187929 0.21395,-0.187929 0.21395,-0.52331 0,-0.335381 -0.21395,-0.52331 -0.21105,-0.187929 -0.58691,-0.187929 -0.37875,0 -0.58981,0.187929 -0.20817,0.187929 -0.20817,0.52331 z"
         style="fill:#ffffff;fill-opacity:1;stroke-width:0.14803021"
         id="path869"
         inkscape:connector-curvature="0" />
    </g>
    <path
       style="opacity:1;fill:#b94d1d;fill-opacity:0.68627451;stroke:none;stroke-width:0.4325;stroke-linecap:round;stroke-linejoin:round;stroke-miterlimit:4;stroke-dasharray:none;stroke-dashoffset:0;stroke-opacity:1"
       d="m 196.05035,48.952519 h 6.99256 c 0.26175,0 0.47246,0.05268 0.47246,0.118117 V 52.1476 c 0,0.03272 -0.0527,0.06225 -0.13808,0.0836 -0.0854,0.02135 -0.20351,0.03452 -0.33439,0.03452 h -3.49628 -3.49628 c -0.13087,0 -0.24899,-0.01318 -0.33439,-0.03452 -0.0854,-0.02135 -0.13808,-0.05088 -0.13808,-0.0836 v -3.076964 c 0,-0.06544 0.21072,-0.118117 0.47248,-0.118117 z"
       id="rect821-2-5"
       inkscape:connector-curvature="0"
       sodipodi:nodetypes="sssssscsssss" />
    <g
       id="text898"
       style="font-style:normal;font-weight:normal;font-size:4.79439878px;line-height:1.25;font-family:sans-serif;letter-spacing:0px;word-spacing:0px;fill:#000000;fill-opacity:1;stroke:none;stroke-width:0.11985998"
       aria-label="journée">
      <path
         inkscape:connector-curvature="0"
         id="path888"
         style="fill:#ffffff;fill-opacity:1;stroke-width:0.11985998"
         d="m 206.46996,49.575893 h 0.43075 v 2.668758 q 0,0.500977 -0.19197,0.725714 -0.18962,0.224738 -0.61334,0.224738 h -0.16387 v -0.365199 h 0.1147 q 0.24581,0 0.33477,-0.114709 0.089,-0.112369 0.089,-0.470544 z m 0,-1.020682 h 0.43075 v 0.545456 h -0.43075 z" />
      <path
         inkscape:connector-curvature="0"
         id="path890"
         style="fill:#ffffff;fill-opacity:1;stroke-width:0.11985998"
         d="m 208.81566,49.877884 q -0.34647,0 -0.5478,0.271558 -0.20133,0.269217 -0.20133,0.739761 0,0.470544 0.19899,0.742102 0.20132,0.269216 0.55014,0.269216 0.34412,0 0.54545,-0.271557 0.20133,-0.271558 0.20133,-0.739761 0,-0.465862 -0.20133,-0.73742 -0.20133,-0.273899 -0.54545,-0.273899 z m 0,-0.365198 q 0.56184,0 0.88256,0.365198 0.32072,0.365199 0.32072,1.011319 0,0.643779 -0.32072,1.011318 -0.32072,0.365199 -0.88256,0.365199 -0.56419,0 -0.88491,-0.365199 -0.31838,-0.367539 -0.31838,-1.011318 0,-0.64612 0.31838,-1.011319 0.32072,-0.365198 0.88491,-0.365198 z" />
      <path
         inkscape:connector-curvature="0"
         id="path892"
         style="fill:#ffffff;fill-opacity:1;stroke-width:0.11985998"
         d="m 210.68613,51.163102 v -1.587209 h 0.43074 v 1.570821 q 0,0.372222 0.14515,0.559503 0.14514,0.18494 0.43543,0.18494 0.34881,0 0.55013,-0.222396 0.20367,-0.222397 0.20367,-0.606323 v -1.486545 h 0.43075 v 2.621937 h -0.43075 v -0.402654 q -0.15685,0.238783 -0.3652,0.355834 -0.20601,0.11471 -0.4799,0.11471 -0.45182,0 -0.68592,-0.280922 -0.2341,-0.280922 -0.2341,-0.821696 z m 1.08389,-1.650416 z" />
      <path
         inkscape:connector-curvature="0"
         id="path894"
         style="fill:#ffffff;fill-opacity:1;stroke-width:0.11985998"
         d="m 215.29324,49.978548 q -0.0726,-0.04214 -0.15918,-0.06087 -0.0843,-0.02107 -0.18729,-0.02107 -0.36519,0 -0.56184,0.238784 -0.1943,0.236442 -0.1943,0.681235 v 1.381199 h -0.43309 v -2.621937 h 0.43309 v 0.407337 q 0.13578,-0.238784 0.35349,-0.353493 0.21771,-0.117051 0.52907,-0.117051 0.0445,0 0.0983,0.007 0.0538,0.0047 0.11939,0.01639 z" />
      <path
         inkscape:connector-curvature="0"
         id="path896"
         style="fill:#ffffff;fill-opacity:1;stroke-width:0.11985998"
         d="m 217.84495,50.615304 v 1.582526 h -0.43075 v -1.56848 q 0,-0.372221 -0.14514,-0.557161 -0.14514,-0.184941 -0.43543,-0.184941 -0.34881,0 -0.55014,0.222397 -0.20132,0.222396 -0.20132,0.606323 v 1.481862 h -0.43309 v -2.621937 h 0.43309 v 0.407337 q 0.1545,-0.236443 0.36285,-0.353493 0.2107,-0.117051 0.48459,-0.117051 0.45182,0 0.68358,0.280922 0.23176,0.278581 0.23176,0.821696 z" />
      <path
         inkscape:connector-curvature="0"
         id="path898"
         style="fill:#ffffff;fill-opacity:1;stroke-width:0.11985998"
         d="m 220.95148,50.779175 v 0.210691 h -1.9805 q 0.0281,0.444793 0.26687,0.678895 0.24113,0.23176 0.66954,0.23176 0.24814,0 0.4799,-0.06087 0.2341,-0.06087 0.46352,-0.182599 v 0.407336 q -0.23176,0.09832 -0.47522,0.149825 -0.24347,0.0515 -0.49396,0.0515 -0.62739,0 -0.99493,-0.365199 -0.3652,-0.365198 -0.3652,-0.987908 0,-0.643779 0.34647,-1.020683 0.34882,-0.379244 0.93875,-0.379244 0.52907,0 0.83574,0.341788 0.30902,0.339447 0.30902,0.924701 z m -0.43075,-0.126415 q -0.005,-0.353493 -0.19899,-0.564184 -0.19196,-0.210692 -0.51034,-0.210692 -0.36051,0 -0.57823,0.203669 -0.21537,0.203668 -0.24814,0.573548 z m -0.41436,-2.289512 h 0.46586 l -0.76317,0.880221 h -0.35817 z" />
      <path
         inkscape:connector-curvature="0"
         id="path900"
         style="fill:#ffffff;fill-opacity:1;stroke-width:0.11985998"
         d="m 223.90116,50.779175 v 0.210691 h -1.9805 q 0.0281,0.444793 0.26687,0.678895 0.24113,0.23176 0.66953,0.23176 0.24815,0 0.47991,-0.06087 0.2341,-0.06087 0.46352,-0.182599 v 0.407336 q -0.23176,0.09832 -0.47522,0.149825 -0.24347,0.0515 -0.49396,0.0515 -0.62739,0 -0.99493,-0.365199 -0.3652,-0.365198 -0.3652,-0.987908 0,-0.643779 0.34647,-1.020683 0.34881,-0.379244 0.93875,-0.379244 0.52907,0 0.83574,0.341788 0.30902,0.339447 0.30902,0.924701 z m -0.43075,-0.126415 q -0.005,-0.353493 -0.19899,-0.564184 -0.19196,-0.210692 -0.51034,-0.210692 -0.36051,0 -0.57823,0.203669 -0.21537,0.203668 -0.24815,0.573548 z" />
    </g>
    <path
       style="opacity:1;fill:#2385bd;fill-opacity:1;stroke:none;stroke-width:0.4325;stroke-linecap:round;stroke-linejoin:round;stroke-miterlimit:4;stroke-dasharray:none;stroke-dashoffset:0;stroke-opacity:1"
       d="m 196.05034,55.02844 h 6.99256 c 0.26175,0 0.47247,0.05268 0.47247,0.118118 v 3.076962 c 0,0.03272 -0.0527,0.06225 -0.13808,0.0836 -0.0854,0.02135 -0.20351,0.03452 -0.33439,0.03452 h -3.49628 -3.49628 c -0.13087,0 -0.24899,-0.01317 -0.33439,-0.03452 -0.0854,-0.02135 -0.13808,-0.05088 -0.13808,-0.0836 v -3.076962 c 0,-0.06544 0.21073,-0.118118 0.47247,-0.118118 z"
       id="rect821-36"
       inkscape:connector-curvature="0"
       sodipodi:nodetypes="sssssscsssss" />
    <g
       id="text898-3"
       style="font-style:normal;font-weight:normal;font-size:4.79439878px;line-height:1.25;font-family:sans-serif;letter-spacing:0px;word-spacing:0px;fill:#000000;fill-opacity:1;stroke:none;stroke-width:0.11985998"
       aria-label="soirée"
       transform="translate(0,-1.2007111)">
      <path
         inkscape:connector-curvature="0"
         id="path875"
         style="fill:#ffffff;fill-opacity:1;stroke-width:0.11985998"
         d="m 207.82455,56.929777 v 0.407337 q -0.1826,-0.09364 -0.37925,-0.140461 -0.19664,-0.04682 -0.40733,-0.04682 -0.32072,0 -0.48225,0.09832 -0.15919,0.09832 -0.15919,0.294968 0,0.149825 0.11471,0.236443 0.11471,0.08428 0.46118,0.16153 l 0.14748,0.03277 q 0.45884,0.09832 0.65081,0.278581 0.1943,0.177917 0.1943,0.498636 0,0.365198 -0.29029,0.578231 -0.28794,0.213032 -0.7936,0.213032 -0.21069,0 -0.44011,-0.04214 -0.22708,-0.0398 -0.47991,-0.121733 v -0.444793 q 0.23878,0.124074 0.47054,0.187281 0.23177,0.06087 0.45884,0.06087 0.30434,0 0.46821,-0.103005 0.16387,-0.105346 0.16387,-0.294968 0,-0.175576 -0.11939,-0.269217 -0.11705,-0.09364 -0.51737,-0.180258 l -0.14982,-0.03512 q -0.40032,-0.08428 -0.57823,-0.257512 -0.17792,-0.175576 -0.17792,-0.479908 0,-0.36988 0.26219,-0.571207 0.2622,-0.201328 0.74445,-0.201328 0.23878,0 0.44947,0.03512 0.21069,0.03511 0.38861,0.105345 z" />
      <path
         inkscape:connector-curvature="0"
         id="path877"
         style="fill:#ffffff;fill-opacity:1;stroke-width:0.11985998"
         d="m 209.66927,57.154515 q -0.34647,0 -0.5478,0.271557 -0.20133,0.269217 -0.20133,0.739761 0,0.470544 0.19899,0.742102 0.20133,0.269217 0.55014,0.269217 0.34413,0 0.54546,-0.271558 0.20132,-0.271558 0.20132,-0.739761 0,-0.465862 -0.20132,-0.73742 -0.20133,-0.273898 -0.54546,-0.273898 z m 0,-0.365199 q 0.56184,0 0.88256,0.365199 0.32072,0.365198 0.32072,1.011318 0,0.643779 -0.32072,1.011319 -0.32072,0.365198 -0.88256,0.365198 -0.56419,0 -0.88491,-0.365198 -0.31837,-0.36754 -0.31837,-1.011319 0,-0.64612 0.31837,-1.011318 0.32072,-0.365199 0.88491,-0.365199 z" />
      <path
         inkscape:connector-curvature="0"
         id="path879"
         style="fill:#ffffff;fill-opacity:1;stroke-width:0.11985998"
         d="m 211.58422,56.852524 h 0.43075 v 2.621937 h -0.43075 z m 0,-1.020683 h 0.43075 v 0.545457 h -0.43075 z" />
      <path
         inkscape:connector-curvature="0"
         id="path881"
         style="fill:#ffffff;fill-opacity:1;stroke-width:0.11985998"
         d="m 214.43323,57.255178 q -0.0726,-0.04214 -0.15918,-0.06087 -0.0843,-0.02107 -0.18729,-0.02107 -0.36519,0 -0.56184,0.238783 -0.1943,0.236443 -0.1943,0.681236 v 1.381199 h -0.43309 v -2.621937 h 0.43309 v 0.407336 q 0.13578,-0.238783 0.35349,-0.353493 0.21771,-0.117051 0.52907,-0.117051 0.0445,0 0.0983,0.007 0.0538,0.0047 0.11939,0.01639 z" />
      <path
         inkscape:connector-curvature="0"
         id="path883"
         style="fill:#ffffff;fill-opacity:1;stroke-width:0.11985998"
         d="m 217.02942,58.055805 v 0.210692 h -1.9805 q 0.0281,0.444793 0.26688,0.678894 0.24112,0.231761 0.66953,0.231761 0.24814,0 0.47991,-0.06087 0.2341,-0.06087 0.46352,-0.182599 v 0.407337 q -0.23176,0.09832 -0.47523,0.149825 -0.24347,0.0515 -0.49395,0.0515 -0.6274,0 -0.99494,-0.365198 -0.36519,-0.365199 -0.36519,-0.987909 0,-0.643779 0.34647,-1.020682 0.34881,-0.379245 0.93874,-0.379245 0.52907,0 0.83575,0.341789 0.30901,0.339447 0.30901,0.9247 z m -0.43075,-0.126414 q -0.005,-0.353494 -0.19898,-0.564185 -0.19197,-0.210691 -0.51034,-0.210691 -0.36052,0 -0.57824,0.203668 -0.21537,0.203668 -0.24814,0.573549 z m -0.41436,-2.289513 h 0.46587 L 215.887,56.5201 h -0.35817 z" />
      <path
         inkscape:connector-curvature="0"
         id="path885"
         style="fill:#ffffff;fill-opacity:1;stroke-width:0.11985998"
         d="m 219.9791,58.055805 v 0.210692 h -1.9805 q 0.0281,0.444793 0.26688,0.678894 0.24112,0.231761 0.66953,0.231761 0.24814,0 0.4799,-0.06087 0.23411,-0.06087 0.46353,-0.182599 v 0.407337 q -0.23177,0.09832 -0.47523,0.149825 -0.24347,0.0515 -0.49395,0.0515 -0.6274,0 -0.99494,-0.365198 -0.36519,-0.365199 -0.36519,-0.987909 0,-0.643779 0.34647,-1.020682 0.34881,-0.379245 0.93874,-0.379245 0.52907,0 0.83575,0.341789 0.30901,0.339447 0.30901,0.9247 z m -0.43075,-0.126414 q -0.005,-0.353494 -0.19898,-0.564185 -0.19197,-0.210691 -0.51035,-0.210691 -0.36051,0 -0.57823,0.203668 -0.21537,0.203668 -0.24814,0.573549 z" />
    </g>
    <path
       style="opacity:1;fill:#b94d9b;fill-opacity:1;stroke:none;stroke-width:0.4325;stroke-linecap:round;stroke-linejoin:round;stroke-miterlimit:4;stroke-dasharray:none;stroke-dashoffset:0;stroke-opacity:1"
       d="m 196.05034,61.237335 h 6.99256 c 0.26175,0 0.47247,0.05268 0.47247,0.118117 v 3.076964 c 0,0.03272 -0.0527,0.06225 -0.13808,0.0836 -0.0854,0.02135 -0.20352,0.03452 -0.33439,0.03452 h -3.49628 -3.49628 c -0.13087,0 -0.24899,-0.01317 -0.33439,-0.03452 -0.0854,-0.02135 -0.13808,-0.05088 -0.13808,-0.0836 v -3.076964 c 0,-0.06544 0.21072,-0.118117 0.47247,-0.118117 z"
       id="rect821-3-7-7"
       inkscape:connector-curvature="0"
       sodipodi:nodetypes="sssssscsssss" />
    <g
       id="text920"
       style="font-style:normal;font-weight:normal;font-size:4.79439878px;line-height:1.25;font-family:sans-serif;letter-spacing:0px;word-spacing:0px;fill:#000000;fill-opacity:1;stroke:none;stroke-width:0.11985998"
       aria-label="nuit"
       transform="translate(0,-2.9293155)">
      <path
         inkscape:connector-curvature="0"
         id="path866"
         style="fill:#ffffff;fill-opacity:1;stroke-width:0.11985998"
         d="m 208.33255,65.829438 v 1.582526 h -0.43075 v -1.56848 q 0,-0.372221 -0.14514,-0.557161 -0.14514,-0.18494 -0.43543,-0.18494 -0.34881,0 -0.55014,0.222396 -0.20133,0.222396 -0.20133,0.606323 v 1.481862 h -0.43308 v -2.621936 h 0.43308 v 0.407336 q 0.15451,-0.236442 0.36286,-0.353493 0.21069,-0.117051 0.48459,-0.117051 0.45182,0 0.68358,0.280922 0.23176,0.278581 0.23176,0.821696 z" />
      <path
         inkscape:connector-curvature="0"
         id="path868"
         style="fill:#ffffff;fill-opacity:1;stroke-width:0.11985998"
         d="m 209.1519,66.377236 v -1.587208 h 0.43075 v 1.570821 q 0,0.372221 0.14514,0.559502 0.14515,0.18494 0.43543,0.18494 0.34881,0 0.55014,-0.222396 0.20367,-0.222396 0.20367,-0.606323 v -1.486544 h 0.43075 v 2.621936 h -0.43075 V 67.00931 q -0.15685,0.238783 -0.3652,0.355834 -0.20601,0.11471 -0.47991,0.11471 -0.45181,0 -0.68591,-0.280922 -0.23411,-0.280922 -0.23411,-0.821696 z m 1.08389,-1.650416 z" />
      <path
         inkscape:connector-curvature="0"
         id="path870"
         style="fill:#ffffff;fill-opacity:1;stroke-width:0.11985998"
         d="m 212.2397,64.790028 h 0.43075 v 2.621936 h -0.43075 z m 0,-1.020683 h 0.43075 v 0.545457 h -0.43075 z" />
      <path
         inkscape:connector-curvature="0"
         id="path872"
         style="fill:#ffffff;fill-opacity:1;stroke-width:0.11985998"
         d="m 213.99546,64.045585 v 0.744443 h 0.88725 v 0.334765 h -0.88725 v 1.423337 q 0,0.320719 0.0866,0.412019 0.089,0.0913 0.35818,0.0913 h 0.44245 v 0.360516 h -0.44245 q -0.49864,0 -0.68826,-0.18494 -0.18962,-0.187281 -0.18962,-0.678894 v -1.423337 h -0.31604 v -0.334765 h 0.31604 v -0.744443 z" />
    </g>
  </g>
</svg>
